<svg width="52" height="56" viewBox="0 0 52 56" fill="none" xmlns="http://www.w3.org/2000/svg">
<path d="M23.0743 0C23.0743 0 22.0556 0.529412 21.0251 1.31176C20.5157 1.70353 19.9827 2.16 19.5444 2.69882C19.1061 3.23647 18.7153 3.88353 18.7153 4.70118C18.7153 5.51882 19.2009 6.18941 19.6866 6.59765C20.1722 7.00706 20.7052 7.27059 21.179 7.52C21.6528 7.76824 22.0674 8.00235 22.2925 8.18824C22.5175 8.37412 22.5057 8.39647 22.5057 8.46588C22.5057 8.53294 22.4228 8.80118 22.1503 9.13529C21.9964 9.32353 21.795 9.52941 21.5699 9.72941C22.5057 9.61176 23.4651 9.52941 24.4364 9.47059C24.5549 9.16706 24.6378 8.83412 24.6378 8.46588C24.6378 7.64824 24.1522 6.97765 23.6665 6.56941C23.1809 6.16 22.6478 5.89647 22.174 5.64706C21.7002 5.39882 21.2856 5.16471 21.0606 4.97882C20.8355 4.79294 20.8474 4.77059 20.8474 4.70118C20.8474 4.63176 20.9303 4.36471 21.2027 4.03059C21.4752 3.69647 21.8897 3.32235 22.328 2.99529C23.1927 2.33882 24.0692 1.87294 24.0692 1.87294L23.0743 0ZM32.5503 0C32.5503 0 31.5317 0.529412 30.5011 1.31176C29.9918 1.70353 29.4588 2.16 29.0205 2.69882C28.5822 3.23647 28.1913 3.88353 28.1913 4.70118C28.1913 5.51882 28.677 6.18941 29.1626 6.59765C29.6483 7.00706 30.1813 7.27059 30.6551 7.52C31.1289 7.76824 31.5435 8.00235 31.7686 8.18824C31.9936 8.37412 31.9818 8.39647 31.9818 8.46588C31.9818 8.53294 31.8989 8.80118 31.6264 9.13529C31.579 9.19882 31.5198 9.26353 31.4606 9.32941C32.3016 9.27176 33.1426 9.23412 33.9954 9.22C34.0665 8.98588 34.1139 8.73529 34.1139 8.46588C34.1139 7.64824 33.6282 6.97765 33.1426 6.56941C32.6569 6.16 32.1239 5.89647 31.6501 5.64706C31.1763 5.39882 30.7617 5.16471 30.5367 4.97882C30.3116 4.79294 30.3235 4.77059 30.3235 4.70118C30.3235 4.63176 30.4064 4.36471 30.6788 4.03059C30.9513 3.69647 31.3658 3.32235 31.8041 2.99529C32.6688 2.33882 33.5453 1.87294 33.5453 1.87294L32.5503 0ZM42.2633 0C42.2633 0 41.2446 0.529412 40.2141 1.31176C39.7048 1.70353 39.1718 2.16 38.7335 2.69882C38.2952 3.23647 37.9043 3.88353 37.9043 4.70118C37.9043 5.51882 38.39 6.18941 38.8756 6.59765C39.3613 7.00706 39.8943 7.27059 40.3681 7.52C40.8419 7.76824 41.2565 8.00235 41.4815 8.18824C41.7066 8.37412 41.6948 8.39647 41.6948 8.46588C41.6948 8.53294 41.6118 8.80118 41.3394 9.13529C41.2091 9.29177 41.0551 9.45882 40.8774 9.62353C41.7184 9.74118 42.5239 9.89412 43.2938 10.0706C43.6018 9.61176 43.8269 9.09059 43.8269 8.46588C43.8269 7.64824 43.3412 6.97765 42.8556 6.56941C42.3699 6.16 41.8369 5.89647 41.3631 5.64706C40.8893 5.39882 40.4747 5.16471 40.2497 4.97882C40.0246 4.79294 40.0364 4.77059 40.0364 4.70118C40.0364 4.63176 40.1194 4.36471 40.3918 4.03059C40.6642 3.69647 41.0788 3.32235 41.5171 2.99529C42.3818 2.33882 43.2583 1.87294 43.2583 1.87294L42.2633 0ZM26.4501 11.5176C22.7426 11.5765 19.0469 12.0941 16.4173 12.9765C15.1144 13.4118 14.0838 13.9412 13.4679 14.4706C12.8638 15 12.6861 15.3882 12.7453 15.8706C12.8875 17.3176 14.5221 18.5647 14.5221 18.5647L15.0077 18.8941L14.9604 20.2353H20.267L20.1841 18.0824L22.3162 17.9882L22.4109 20.2353H29.8733L29.826 18.3059L31.9581 18.2588L32.0055 20.2353H38.0583L37.9162 18L38.8401 17.8235C38.8401 17.8235 39.2665 17.7294 39.7048 17.4235C40.1549 17.1176 40.5458 16.7294 40.5576 15.7882C40.5695 15.2 40.3207 14.7176 39.6574 14.1647C38.9941 13.6235 37.928 13.0941 36.5895 12.6824C34.0665 11.8941 30.6314 11.5059 27.149 11.5176H26.4501ZM39.5745 11.6C40.1194 11.8706 40.605 12.1882 41.0314 12.5529C42.0264 13.3765 42.7134 14.5294 42.6897 15.8353C42.6542 17.4588 41.754 18.5882 40.9248 19.1647C40.6524 19.3529 40.3918 19.4824 40.1549 19.5882L40.1904 20.2353H45.6629L45.5089 17.8235L46.4328 17.6471C46.4328 17.6471 46.8592 17.5529 47.2975 17.2471C47.7358 16.9412 48.1385 16.5529 48.1503 15.6C48.1622 15.0118 47.9134 14.5412 47.2501 13.9882C46.5868 13.4353 45.5207 12.9059 44.1822 12.4941C42.8556 12.0824 41.2802 11.7882 39.5745 11.6ZM15.1617 22.3529C13.6219 22.3529 11.9517 23.1529 10.708 24.4C9.45239 25.6353 8.64692 27.2941 8.64692 28.8235V40.9412H38.8282C39.3376 38.2706 41.7066 36.2353 44.5376 36.2353C47.3686 36.2353 49.7376 38.2706 50.2469 40.9412H52V28.8235C52 27.2941 51.1945 25.6353 49.9389 24.4C48.6952 23.1529 47.0251 22.3529 45.4852 22.3529H15.1617ZM44.5376 38.3529C42.5002 38.3529 40.8656 39.9765 40.8656 42C40.8656 44.0235 42.5002 45.6471 44.5376 45.6471C46.5749 45.6471 48.2096 44.0235 48.2096 42C48.2096 39.9765 46.5749 38.3529 44.5376 38.3529ZM8.64692 43.0588V50.3529H52V43.0588H50.2469C49.7376 45.7294 47.3686 47.7647 44.5376 47.7647C41.7066 47.7647 39.3376 45.7294 38.8282 43.0588H8.64692ZM3.31308 43.7529C1.89522 43.8 0 44.7059 0 46.5882V47.6471H6.51481V45.5294H4.20264L3.31308 43.7529ZM12.4374 52.4706V56H15.9909V52.4706H12.4374ZM44.656 52.4706V56H48.2096V52.4706H44.656Z" fill="#95462E"/>
</svg>
