<svg width="24" height="25" viewBox="0 0 24 25" fill="none" xmlns="http://www.w3.org/2000/svg">
<path d="M-0.000111001 9.98301C-0.00341843 10.1857 0.0549654 10.3846 0.167299 10.5534C0.279633 10.7222 0.440611 10.8528 0.628889 10.928L10.2299 14.769L14.0709 24.371C14.1451 24.5567 14.2733 24.7159 14.4389 24.8281C14.6045 24.9402 14.7999 25.0001 14.9999 25H15.0159C15.2184 24.9968 15.4152 24.9322 15.5802 24.8147C15.7452 24.6972 15.8706 24.5324 15.9399 24.342L23.9399 2.34201C24.0054 2.16303 24.0184 1.96907 23.9773 1.78297C23.9363 1.59686 23.8429 1.42636 23.7082 1.29155C23.5735 1.15674 23.403 1.06323 23.217 1.02203C23.0309 0.98083 22.8369 0.99366 22.6579 1.05901L0.657889 9.05901C0.467455 9.12844 0.302586 9.25405 0.185092 9.41922C0.0675983 9.58439 0.00301619 9.78134 -0.000111001 9.98401V9.98301Z" fill="white"/>
</svg>
